<svg width="542" height="62" viewBox="0 0 542 62" fill="none" xmlns="http://www.w3.org/2000/svg">
<g clip-path="url(#clip0_459_65463)">
<g clip-path="url(#clip1_459_65463)">
<path d="M21.1863 33.5744H32.1729C33.8229 33.5744 34.3863 35.1439 33.3802 36.3915L16.196 57.6C10.6424 53.1732 11.1655 46.1707 15.2302 41.0598L21.1863 33.5744ZM12.6948 42.0256H1.70823C0.058226 42.0256 -0.505189 40.4561 0.500909 39.2085L17.6851 18C23.2387 22.4268 22.6351 29.3488 18.6107 34.5L12.6948 42.0256Z" fill="#1868DB"/>
</g>
<path d="M535.611 44.869C535.611 46.893 536.807 48.273 539.245 48.273C540.165 48.273 541.039 48.089 541.729 47.951V51.769C541.039 51.953 540.257 52.137 539.061 52.137C534.139 52.137 531.747 49.239 531.747 44.961V32.679H528.021V28.999H531.747V24.123H535.611V28.999H541.729V32.679H535.611V44.869Z" fill="#101214"/>
<path d="M524.62 38.5211V51.9991H520.664V38.1071C520.664 33.9671 519.008 32.1271 515.236 32.1271C511.556 32.1271 509.026 34.5651 509.026 39.2111V51.9991H505.07V28.9991H509.026V32.7711C510.498 30.0571 513.212 28.5391 516.294 28.5391C521.584 28.5391 524.62 32.1731 524.62 38.5211Z" fill="#101214"/>
<path d="M490.239 32.1271C486.053 32.1271 483.937 34.8411 483.523 38.8431H496.357C496.127 34.5651 494.195 32.1271 490.239 32.1271ZM499.071 51.0791C497.185 52.0911 494.287 52.4591 491.941 52.4591C483.339 52.4591 479.567 47.4911 479.567 40.4531C479.567 33.5071 483.431 28.5391 490.423 28.5391C497.507 28.5391 500.359 33.4611 500.359 40.4531V42.2471H483.569C484.121 46.1571 486.651 48.6871 492.079 48.6871C494.747 48.6871 497.001 48.1811 499.071 47.4451V51.0791Z" fill="#101214"/>
<path d="M459.843 39.2111V51.9991H455.887V38.1071C455.887 33.9671 454.231 32.1271 450.459 32.1271C446.779 32.1271 444.249 34.5651 444.249 39.2111V51.9991H440.293V28.9991H444.249V32.7711C445.721 30.0571 448.435 28.5391 451.517 28.5391C455.427 28.5391 458.095 30.5171 459.245 34.1511C460.533 30.6091 463.615 28.5391 467.433 28.5391C472.585 28.5391 475.437 32.0351 475.437 38.5211V51.9991H471.481V39.2111C471.481 34.4731 469.825 32.1271 466.053 32.1271C462.373 32.1271 459.843 34.5651 459.843 39.2111Z" fill="#101214"/>
<path d="M425.462 32.1271C421.276 32.1271 419.16 34.8411 418.746 38.8431H431.58C431.35 34.5651 429.418 32.1271 425.462 32.1271ZM434.294 51.0791C432.408 52.0911 429.51 52.4591 427.164 52.4591C418.562 52.4591 414.79 47.4911 414.79 40.4531C414.79 33.5071 418.654 28.5391 425.646 28.5391C432.73 28.5391 435.582 33.4611 435.582 40.4531V42.2471H418.792C419.344 46.1571 421.874 48.6871 427.302 48.6871C429.97 48.6871 432.224 48.1811 434.294 47.4451V51.0791Z" fill="#101214"/>
<path d="M406.336 50.1591V47.8591C404.864 50.8951 402.104 52.4591 398.562 52.4591C392.49 52.4591 389.454 47.2611 389.454 40.4991C389.454 34.0131 392.628 28.5391 399.022 28.5391C402.38 28.5391 404.956 30.0571 406.336 33.0471V28.9991H410.2V49.9291C410.2 56.6911 407.026 61.2451 398.792 61.2451C394.928 61.2451 392.812 60.7391 390.604 60.0031V56.1391C393.134 56.9671 395.756 57.5191 398.608 57.5191C404.358 57.5191 406.336 54.4371 406.336 50.1591ZM393.318 40.4991C393.318 46.0191 395.526 48.7791 399.62 48.7791C403.162 48.7791 406.336 46.5251 406.336 41.4191V39.5791C406.336 34.4731 403.438 32.2191 400.08 32.2191C395.618 32.2191 393.318 35.1631 393.318 40.4991Z" fill="#101214"/>
<path d="M367.895 40.4991C367.895 46.0191 370.103 48.7791 374.197 48.7791C377.739 48.7791 380.913 46.5251 380.913 41.4191V39.5791C380.913 34.4731 378.014 32.2191 374.656 32.2191C370.194 32.2191 367.895 35.1631 367.895 40.4991ZM380.913 51.9991V47.8591C379.441 50.8951 376.68 52.4591 373.138 52.4591C367.02 52.4591 363.938 47.2611 363.938 40.4991C363.938 34.0131 367.158 28.5391 373.598 28.5391C376.956 28.5391 379.533 30.0571 380.913 33.0471V28.9991H384.868V51.9991H380.913Z" fill="#101214"/>
<path d="M359.802 38.5211V51.9991H355.846V38.1071C355.846 33.9671 354.19 32.1271 350.418 32.1271C346.738 32.1271 344.208 34.5651 344.208 39.2111V51.9991H340.252V28.9991H344.208V32.7711C345.68 30.0571 348.394 28.5391 351.476 28.5391C356.766 28.5391 359.802 32.1731 359.802 38.5211Z" fill="#101214"/>
<path d="M317.312 40.4991C317.312 46.0191 319.52 48.7791 323.614 48.7791C327.156 48.7791 330.33 46.5251 330.33 41.4191V39.5791C330.33 34.4731 327.432 32.2191 324.074 32.2191C319.612 32.2191 317.312 35.1631 317.312 40.4991ZM330.33 51.9991V47.8591C328.858 50.8951 326.098 52.4591 322.556 52.4591C316.438 52.4591 313.356 47.2611 313.356 40.4991C313.356 34.0131 316.576 28.5391 323.016 28.5391C326.374 28.5391 328.95 30.0571 330.33 33.0471V28.9991H334.286V51.9991H330.33Z" fill="#101214"/>
<path d="M283.162 35.4853L279.022 24.2613V51.9993H274.882V21.7773H282.058L288.912 39.1193L291.718 47.4453L294.524 39.1193L301.424 21.7773H308.094V51.9993H303.954V24.5833L300.412 35.4853L293.742 51.9993H289.74L283.162 35.4853Z" fill="#101214"/>
<path d="M250.896 32.1271C246.71 32.1271 244.594 34.8411 244.18 38.8431H257.014C256.784 34.5651 254.852 32.1271 250.896 32.1271ZM259.728 51.0791C257.842 52.0911 254.944 52.4591 252.598 52.4591C243.996 52.4591 240.224 47.4911 240.224 40.4531C240.224 33.5071 244.088 28.5391 251.08 28.5391C258.164 28.5391 261.016 33.4611 261.016 40.4531V42.2471H244.226C244.778 46.1571 247.308 48.6871 252.736 48.6871C255.404 48.6871 257.658 48.1811 259.728 47.4451V51.0791Z" fill="#101214"/>
<path d="M237.088 47.8591V51.4011C235.708 52.1371 233.592 52.4591 231.476 52.4591C223.288 52.4591 219.47 47.4911 219.47 40.4531C219.47 33.5071 223.288 28.5391 231.476 28.5391C233.546 28.5391 235.156 28.8151 236.95 29.6431V33.3231C235.478 32.6331 233.914 32.2191 231.752 32.2191C225.772 32.2191 223.334 35.9911 223.334 40.4531C223.334 44.9151 225.818 48.6871 231.844 48.6871C234.19 48.6871 235.662 48.3651 237.088 47.8591Z" fill="#101214"/>
<path d="M210.186 22.928C210.186 21.18 211.336 20.168 212.946 20.168C214.556 20.168 215.706 21.18 215.706 22.928C215.706 24.676 214.556 25.688 212.946 25.688C211.336 25.688 210.186 24.676 210.186 22.928ZM210.922 52V29H214.878V52H210.922Z" fill="#101214"/>
<path d="M198.571 52H193.281L184.357 29H188.497L195.949 48.642L203.355 29H207.495L198.571 52Z" fill="#101214"/>
<path d="M175.389 38.4306V52.0006H171.525V29.0006H175.389V33.0486C176.723 30.3346 179.023 28.4026 183.531 28.6786V32.5426C178.471 32.0366 175.389 33.5546 175.389 38.4306Z" fill="#101214"/>
<path d="M156.694 32.1271C152.508 32.1271 150.392 34.8411 149.978 38.8431H162.812C162.582 34.5651 160.65 32.1271 156.694 32.1271ZM165.526 51.0791C163.64 52.0911 160.742 52.4591 158.396 52.4591C149.794 52.4591 146.022 47.4911 146.022 40.4531C146.022 33.5071 149.886 28.5391 156.878 28.5391C163.962 28.5391 166.814 33.4611 166.814 40.4531V42.2471H150.024C150.576 46.1571 153.106 48.6871 158.534 48.6871C161.202 48.6871 163.456 48.1811 165.526 47.4451V51.0791Z" fill="#101214"/>
<path d="M142.536 43.6744C142.536 48.9184 139.408 52.4604 131.91 52.4604C126.068 52.4604 123.354 51.3104 121.008 50.1144V45.8824C123.814 47.3544 128.138 48.4124 132.14 48.4124C136.694 48.4124 138.396 46.6184 138.396 43.9504C138.396 41.2824 136.74 39.8564 130.99 38.4764C124.182 36.8204 121.146 34.4744 121.146 29.5064C121.146 24.8144 124.734 21.3184 131.772 21.3184C136.142 21.3184 138.948 22.3764 141.018 23.5264V27.6664C137.982 25.9184 134.716 25.3664 131.588 25.3664C127.632 25.3664 125.286 26.7464 125.286 29.5064C125.286 31.9904 127.218 33.2324 132.554 34.5664C138.948 36.1764 142.536 38.2464 142.536 43.6744Z" fill="#101214"/>
<path d="M91.5351 40.4991C91.5351 46.0191 93.7431 48.7791 97.8371 48.7791C101.379 48.7791 104.553 46.5251 104.553 41.4191V39.5791C104.553 34.4731 101.655 32.2191 98.2971 32.2191C93.8351 32.2191 91.5351 35.1631 91.5351 40.4991ZM104.553 51.9991V47.8591C103.081 50.8951 100.321 52.4591 96.7791 52.4591C90.6611 52.4591 87.5791 47.2611 87.5791 40.4991C87.5791 34.0131 90.7991 28.5391 97.2391 28.5391C100.597 28.5391 103.173 30.0571 104.553 33.0471V28.9991H108.509V51.9991H104.553Z" fill="#101214"/>
<path d="M77.864 38.4306V52.0006H74V29.0006H77.864V33.0486C79.198 30.3346 81.498 28.4026 86.006 28.6786V32.5426C80.946 32.0366 77.864 33.5546 77.864 38.4306Z" fill="#101214"/>
<path d="M63.3359 22.928C63.3359 21.18 64.4859 20.168 66.0959 20.168C67.7059 20.168 68.8559 21.18 68.8559 22.928C68.8559 24.676 67.7059 25.688 66.0959 25.688C64.4859 25.688 63.3359 24.676 63.3359 22.928ZM64.0719 52V29H68.0279V52H64.0719Z" fill="#101214"/>
<path d="M54.43 43.0753V21.7773H58.57V42.7993C58.57 48.3653 56.132 52.1833 50.428 52.1833C48.266 52.1833 46.61 51.8153 45.46 51.4013V47.3993C46.702 47.9053 48.22 48.1813 49.738 48.1813C53.234 48.1813 54.43 46.0653 54.43 43.0753Z" fill="#101214"/>
<path d="M95.96 8.06C95.96 6.01 94.66 5.14 92.21 4.53C90.67 4.14 90.31 3.81 90.31 3.3C90.31 2.69 90.85 2.38 91.86 2.38C93.08 2.38 94.29 2.77 95.43 3.32V0.76C94.63 0.33 93.28 0 91.93 0C89.26 0 87.77 1.28 87.77 3.36C87.77 5.44 89.08 6.35 91.33 6.85C92.88 7.19 93.36 7.45 93.36 8.12C93.36 8.63 92.99 9.04 91.81 9.04C90.43 9.04 88.78 8.55 87.71 7.87V10.56C88.56 11.01 90 11.5 91.79 11.5C94.61 11.5 95.95 10.13 95.95 8.06H95.96Z" fill="#1868DB"/>
<path d="M126.68 0.160156V11.3402H129.05V2.83016L130.05 5.09016L133.41 11.3502H136.4V0.170156H134.03V7.39016L133.13 5.30016L130.43 0.170156H126.69L126.68 0.160156Z" fill="#1868DB"/>
<path d="M111.6 0.160156H109V11.3402H111.6V0.160156Z" fill="#1868DB"/>
<path d="M67.6504 0.160156V11.3402H72.9704L73.8104 8.92016H70.2504V0.160156H67.6504Z" fill="#1868DB"/>
<path d="M57.1104 0.160156V2.58016H60.0004V11.3402H62.6003V2.58016H65.6904V0.160156H57.1104Z" fill="#1868DB"/>
<path d="M53.32 0.160156H49.9L46 11.3402H48.97L49.52 9.45016C50.18 9.64016 50.87 9.76016 51.61 9.76016C52.35 9.76016 53.02 9.66016 53.7 9.45016L54.25 11.3402H57.22L53.3 0.160156H53.32ZM51.6 7.46016C51.11 7.46016 50.62 7.38016 50.16 7.25016L51.6 2.36016L53.04 7.25016C52.59 7.37016 52.12 7.46016 51.6 7.46016Z" fill="#1868DB"/>
<path d="M82.1804 0.160156H78.7604L74.8604 11.3402H77.8304L78.3803 9.45016C79.0403 9.64016 79.7304 9.76016 80.4704 9.76016C81.2104 9.76016 81.8803 9.66016 82.5603 9.45016L83.1104 11.3402H86.0804L82.1603 0.160156H82.1804ZM80.4604 7.46016C79.9704 7.46016 79.4803 7.38016 79.0203 7.25016L80.4604 2.36016L81.9004 7.25016C81.4504 7.37016 80.9604 7.46016 80.4604 7.46016Z" fill="#1868DB"/>
<path d="M120.93 0.160156H117.51L113.61 11.3402H116.58L117.13 9.45016C117.79 9.64016 118.48 9.76016 119.22 9.76016C119.96 9.76016 120.63 9.66016 121.31 9.45016L121.86 11.3402H124.83L120.91 0.160156H120.93ZM119.23 7.46016C118.74 7.46016 118.25 7.38016 117.79 7.25016L119.23 2.36016L120.67 7.25016C120.2 7.37016 119.73 7.46016 119.23 7.46016Z" fill="#1868DB"/>
<path d="M106.32 8.06C106.32 6.01 105.02 5.14 102.57 4.53C101.03 4.14 100.67 3.81 100.67 3.3C100.67 2.69 101.21 2.38 102.22 2.38C103.44 2.38 104.65 2.77 105.79 3.32V0.76C104.99 0.33 103.64 0 102.29 0C99.6203 0 98.1303 1.28 98.1303 3.36C98.1303 5.44 99.4403 6.35 101.69 6.85C103.24 7.19 103.72 7.45 103.72 8.12C103.72 8.63 103.35 9.04 102.17 9.04C100.79 9.04 99.1403 8.55 98.0703 7.87V10.56C98.9203 11.01 100.36 11.5 102.15 11.5C104.97 11.5 106.31 10.13 106.31 8.06H106.32Z" fill="#1868DB"/>
</g>
<defs>
<clipPath id="clip0_459_65463">
<rect width="542" height="62" fill="white"/>
</clipPath>
<clipPath id="clip1_459_65463">
<rect width="33.8809" height="39.6" fill="white" transform="translate(0 18)"/>
</clipPath>
</defs>
</svg>
