<svg width="269" height="48" viewBox="0 0 269 48" fill="none" xmlns="http://www.w3.org/2000/svg">
<g clip-path="url(#clip0_459_65413)">
<g clip-path="url(#clip1_459_65413)">
<g clip-path="url(#clip2_459_65413)">
<path d="M30.9028 30.0401C21.0272 25.265 18.1422 24.5514 13.9811 24.5514C9.09884 24.5514 4.93779 26.5822 1.22058 32.2905L0.610288 33.2236C0.110961 33.992 0 34.2664 0 34.5957C0 34.9251 0.166442 35.1995 0.77673 35.5837L7.04605 39.4807C7.37894 39.7002 7.65634 39.81 7.93374 39.81C8.26663 39.81 8.48855 39.6453 8.82144 39.1514L9.82009 37.6145C11.3736 35.2544 12.7606 34.486 14.536 34.486C16.0894 34.486 17.9203 34.9251 20.195 36.0228L26.7417 39.0965C27.4075 39.4258 28.1287 39.2611 28.4616 38.4927L31.5685 31.6867C31.9014 30.9183 31.6795 30.4243 30.9028 30.0401ZM2.10827 18.0199C11.9838 22.795 14.8688 23.5086 19.0299 23.5086C23.9122 23.5086 28.0733 21.4778 31.7905 15.7695L32.4007 14.8364C32.9001 14.068 33.011 13.7936 33.011 13.4643C33.011 13.1349 32.8446 12.8605 32.2343 12.4763L25.965 8.57932C25.6321 8.35977 25.3547 8.25 25.0773 8.25C24.7444 8.25 24.5225 8.41466 24.1896 8.90864L23.1909 10.4455C21.6375 12.8056 20.2505 13.574 18.4751 13.574C16.9216 13.574 15.0908 13.1349 12.816 12.0372L6.26932 8.96353C5.60355 8.63421 4.8823 8.79887 4.54942 9.56729L1.4425 16.3733C1.10961 17.1417 1.33154 17.6357 2.10827 18.0199Z" fill="#1868DB"/>
</g>
</g>
<path d="M258.734 18.129C254.548 18.129 252.432 20.843 252.018 24.845H264.852C264.622 20.567 262.69 18.129 258.734 18.129ZM267.566 37.081C265.68 38.093 262.782 38.461 260.436 38.461C251.834 38.461 248.062 33.493 248.062 26.455C248.062 19.509 251.927 14.541 258.919 14.541C266.003 14.541 268.855 19.463 268.855 26.455V28.249H252.064C252.616 32.159 255.146 34.689 260.574 34.689C263.242 34.689 265.496 34.183 267.566 33.447V37.081Z" fill="#101214"/>
<path d="M244.927 33.861V37.403C243.547 38.139 241.431 38.461 239.315 38.461C231.127 38.461 227.309 33.493 227.309 26.455C227.309 19.509 231.127 14.541 239.315 14.541C241.385 14.541 242.995 14.817 244.789 15.645V19.325C243.317 18.635 241.753 18.221 239.591 18.221C233.611 18.221 231.173 21.993 231.173 26.455C231.173 30.917 233.657 34.689 239.683 34.689C242.029 34.689 243.501 34.367 244.927 33.861Z" fill="#101214"/>
<path d="M223.173 24.523V38.001H219.217V24.109C219.217 19.969 217.561 18.129 213.789 18.129C210.109 18.129 207.579 20.567 207.579 25.213V38.001H203.623V15.001H207.579V18.773C209.051 16.059 211.765 14.541 214.847 14.541C220.137 14.541 223.173 18.175 223.173 24.523Z" fill="#101214"/>
<path d="M188.791 18.129C184.605 18.129 182.489 20.843 182.075 24.845H194.909C194.679 20.567 192.747 18.129 188.791 18.129ZM197.623 37.081C195.737 38.093 192.839 38.461 190.493 38.461C181.891 38.461 178.119 33.493 178.119 26.455C178.119 19.509 181.983 14.541 188.975 14.541C196.059 14.541 198.911 19.463 198.911 26.455V28.249H182.121C182.673 32.159 185.203 34.689 190.631 34.689C193.299 34.689 195.553 34.183 197.623 33.447V37.081Z" fill="#101214"/>
<path d="M153.974 28.478V15H157.93V28.892C157.93 33.032 159.586 34.872 163.358 34.872C167.038 34.872 169.568 32.434 169.568 27.788V15H173.524V38H169.568V34.228C168.096 36.942 165.382 38.46 162.3 38.46C157.01 38.46 153.974 34.826 153.974 28.478Z" fill="#101214"/>
<path d="M150.627 37.9547C150.305 38.0467 149.615 38.1387 148.603 38.1387C144.831 38.1387 142.439 36.3447 142.439 32.1127V5.38672H146.395V31.6527C146.395 33.7227 147.775 34.4587 149.477 34.4587C149.891 34.4587 150.167 34.4587 150.627 34.4127V37.9547Z" fill="#101214"/>
<path d="M132.236 12.5629V15.0009H138.17V18.6809H132.236V38.0009H128.372V18.6809H124.646V15.0009H128.372V12.4709C128.372 8.19292 130.764 5.29492 135.686 5.29492C136.882 5.29492 137.664 5.47892 138.354 5.66292V9.29692C137.664 9.15892 136.79 9.06692 135.87 9.06692C133.432 9.06692 132.236 10.4929 132.236 12.5629Z" fill="#101214"/>
<path d="M121.245 24.523V38.001H117.289V24.109C117.289 19.969 115.633 18.129 111.861 18.129C108.181 18.129 105.651 20.567 105.651 25.213V38.001H101.695V15.001H105.651V18.773C107.123 16.059 109.837 14.541 112.919 14.541C118.209 14.541 121.245 18.175 121.245 24.523Z" fill="#101214"/>
<path d="M86.241 38.461C79.341 38.461 75.293 33.355 75.293 26.455C75.293 19.555 79.341 14.541 86.241 14.541C93.095 14.541 97.097 19.555 97.097 26.455C97.097 33.355 93.095 38.461 86.241 38.461ZM86.241 18.221C81.319 18.221 79.157 22.085 79.157 26.455C79.157 30.825 81.319 34.781 86.241 34.781C91.117 34.781 93.233 30.825 93.233 26.455C93.233 22.085 91.117 18.221 86.241 18.221Z" fill="#101214"/>
<path d="M72.3918 32.6644V36.6664C70.5058 37.9084 67.5158 38.4604 64.3878 38.4604C54.4518 38.4604 48.8398 32.4804 48.8398 22.9584C48.8398 13.7584 54.4518 7.31836 64.2958 7.31836C67.2398 7.31836 70.1838 7.87036 72.3458 9.43436V13.4364C70.1838 12.0564 67.7918 11.3204 64.2958 11.3204C57.2118 11.3204 52.9798 16.0124 52.9798 22.9584C52.9798 29.9044 57.3498 34.5044 64.5258 34.5044C67.6998 34.5044 70.1838 33.7684 72.3918 32.6644Z" fill="#101214"/>
</g>
<defs>
<clipPath id="clip0_459_65413">
<rect width="269" height="48" fill="white"/>
</clipPath>
<clipPath id="clip1_459_65413">
<rect width="40" height="48" fill="white"/>
</clipPath>
<clipPath id="clip2_459_65413">
<rect width="33.011" height="31.56" fill="white" transform="translate(0 8.25)"/>
</clipPath>
</defs>
</svg>
